<svg xmlns="http://www.w3.org/2000/svg" width="81.646" height="97.845" viewBox="0 0 81.646 97.845">
  <defs>
    <style>
      .cls-1 {
        fill: #d9b300;
        stroke: #fff;
        stroke-width: 10px;
        font-size: 64px;
        font-family: HelveticaNeue, Helvetica Neue;
      }
    </style>
  </defs>
  <g id="Group_12" data-name="Group 12" transform="translate(-1398.527 -472.784)">
    <g id="Group_11" data-name="Group 11">
      <path id="Path_14" data-name="Path 14" d="M0,18.789s14.385.666,19.326,0A17.189,17.189,0,0,0,26.744,16.3l2.983-1.412,9.5-6.688s9.131,6.6,9.309,6.688c10.651,4.717,8.633,3.9,8.633,3.9H77.187V62.067l-1.435,7.619-4.886,8.65-6.794,8.615L53.154,95.6,47.4,99.738l-8.173,3.678-4.975-1.71-5.625-3.357L18.466,90.456,8.242,79.56,0,64.789Z" transform="translate(1400 464.584)"/>
      <g id="Group_10" data-name="Group 10" transform="translate(12.163 114.23)">
        <g id="Group_7" data-name="Group 7" transform="translate(-17.384 172.082)">
          <text id="W" class="cls-1" transform="translate(1414.166 259.1) rotate(1)"><tspan x="0" y="0">W</tspan></text>
        </g>
        <g id="Group_8" data-name="Group 8" transform="translate(-20.714 208.819)">
          <path id="Path_6" data-name="Path 6" d="M-.8.1,6.825-.146,8.181,3.476H0Z" transform="matrix(-0.891, 0.454, -0.454, -0.891, 1453.724, 202.249)"/>
          <g id="Group_6" data-name="Group 6" transform="translate(33.577 53.97)">
            <g id="Group_4" data-name="Group 4">
              <path id="Path_4" data-name="Path 4" d="M-.155-.276,3.123,1.556,3,14-.124,12.769Z" transform="matrix(0.996, -0.087, 0.087, 0.996, 1396.832, 139.806)"/>
              <path id="Path_3" data-name="Path 3" d="M.088-.142,3.411-1.06l.125,11.526L.36,7.595Z" transform="translate(1402.645 146.649) rotate(42)"/>
              <path id="Path_7" data-name="Path 7" d="M1.992.514,13-.008l.9,3L1.865,3.674Z" transform="matrix(-0.695, 0.719, -0.719, -0.695, 1417.684, 135.24)"/>
              <path id="Path_8" data-name="Path 8" d="M.156.624,21.869.358l3.257,3.619-25-.159Z" transform="translate(1415.69 135.149) rotate(49)"/>
              <path id="Path_9" data-name="Path 9" d="M-.225,1.189,2.461-.783,3.789,11.564.556,12.7Z" transform="translate(1428.268 139.833) rotate(11)"/>
              <path id="Path_10" data-name="Path 10" d="M.116.624,19,0l-.147,3.13L0,3.564Z" transform="matrix(0.883, 0.469, -0.469, 0.883, 1399.005, 139.872)"/>
              <path id="Path_11" data-name="Path 11" d="M1.471.079l5.506-.1L7.72,3.2l-7.8-.078Z" transform="matrix(-0.891, 0.454, -0.454, -0.891, 1431.146, 142.808)"/>
            </g>
          </g>
        </g>
        <rect id="Rectangle_2" data-name="Rectangle 2" width="49.412" height="10.493" transform="translate(1390.5 403.883) rotate(-45)"/>
      </g>
    </g>
  </g>
</svg>
